#!OML:ASF I:\Actors\actors\Patient Classification 2\Patient 1\Session 1\actor1.ASF
:FULLY-SPECIFIED
:DEGREES
932
root -0.329757 18.4845 6.56148 -0.0610978 2.65364 -9.1988
lowerback 12.6211 0.915836 -4.79293
upperback -1.2989 0.186382 -3.44319
thorax -8.51184 0.223236 -1.01117
lowerneck -20.0111 -3.19826 -1.25471
upperneck 11.4745 -3.52078 -2.66284
head 6.72746 -1.99544 -1.06603
rclavicle -1.39149e-015 -9.54166e-015
rhumerus -1.91921 -26.3498 -14.5509
rradius 87.0992
rwrist -12.8111
rhand -12.9533 -29.7873
rfingers 7.12502
rthumb 13.1382 -59.3534
lclavicle -1.39149e-015 -9.54166e-015
lhumerus 8.98389 -7.49743 46.7247
lradius 95.3375
lwrist 29.4204
lhand 2.71504 -23.1931
lfingers 7.12502
lthumb 28.1882 4.70736
rfemur 11.5682 1.19483 22.7972
rtibia 2.8625e-014
rfoot -18.7574 -13.0314
rtoes -17.3954
lfemur -8.58366 -4.20474 -5.13941
ltibia 33.9758
lfoot -23.7586 6.41919
ltoes -58.0403
933
root -0.332534 18.493 6.54043 0.0197192 3.18055 -9.18433
lowerback 12.8946 1.04139 -4.87835
upperback -1.25692 0.316322 -3.50496
thorax -8.62663 0.289198 -1.06027
lowerneck -20.0448 -3.36557 -1.29815
upperneck 11.5402 -3.72236 -2.71747
head 6.75216 -2.09983 -1.10135
rclavicle -1.98785e-015 -6.36111e-015
rhumerus -1.15841 -28.2779 -14.9037
rradius 85.7457
rwrist -12.1673
rhand -13.9247 -30.1431
rfingers 7.12502
rthumb 12.2017 -59.7672
lclavicle -1.98785e-015 -6.36111e-015
lhumerus 9.41284 -7.87342 47.1681
lradius 95.4276
lwrist 29.2075
lhand 2.82958 -23.1587
lfingers 7.12502
lthumb 28.2977 4.72366
rfemur 11.4372 0.675419 22.744
rtibia -2.54444e-014
rfoot -18.7446 -12.8917
rtoes -16.8543
lfemur -8.95682 -4.44283 -5.10268
ltibia 33.9931
lfoot -23.5518 6.2517
ltoes -58.0841
934
root -0.326583 18.5054 6.50721 0.208402 3.62057 -9.18386
lowerback 13.2335 1.17959 -4.77883
upperback -1.25014 0.481892 -3.60209
thorax -8.81538 0.363419 -1.26254
lowerneck -20.1216 -3.5203 -1.31271
upperneck 11.6461 -3.89959 -2.85315
head 6.7951 -2.19914 -1.16657
rclavicle 2.96189e-014 -3.81667e-014
rhumerus -0.326405 -30.2261 -15.2531
rradius 84.2044
rwrist -11.2446
rhand -14.0652 -30.0051
rfingers 7.12502
rthumb 12.0662 -59.6373
lclavicle 2.96189e-014 -3.81667e-014
lhumerus 9.75017 -8.26135 47.5566
lradius 95.6431
lwrist 29.0063
lhand 2.83768 -23.0159
lfingers 7.12502
lthumb 28.3054 4.86519
rfemur 11.1184 0.250226 22.6707
rtibia -3.33958e-014
rfoot -18.6202 -12.8352
rtoes -16.333
lfemur -9.47902 -4.6513 -5.08351
ltibia 34.018
lfoot -23.3218 6.15654
ltoes -58.0445
935
root -0.301592 18.5212 6.45966 0.526242 3.80751 -9.24646
lowerback 13.63 1.34478 -4.26769
upperback -1.28134 0.739699 -3.7653
thorax -9.0709 0.459857 -1.79255
lowerneck -20.4949 -3.72057 -1.85328
upperneck 12.0475 -4.07591 -2.399
head 7.0069 -2.2704 -0.967898
rclavicle 6.16232e-015 -2.8625e-014
rhumerus 0.649507 -32.1738 -15.6749
rradius 82.4833
rwrist -9.95969
rhand -14.2984 -29.6392
rfingers 7.12502
rthumb 11.8413 -59.2844
lclavicle 6.16232e-015 -2.8625e-014
lhumerus 10.1059 -8.60087 47.9061
lradius 95.7648
lwrist 28.8433
lhand 2.75858 -23.1331
lfingers 7.12502
lthumb 28.2298 4.76051
rfemur 10.5368 0.0884757 22.5858
rtibia 0
rfoot -18.324 -12.9153
rtoes -16.164
lfemur -10.137 -4.76733 -5.08448
ltibia 34.0581
lfoot -23.093 6.26733
ltoes -58.0392
936
root -0.299389 18.5367 6.42048 0.616467 4.43177 -9.333
lowerback 14.1801 1.43135 -4.00995
upperback -1.15013 0.86009 -3.84259
thorax -9.2377 0.50242 -2.0607
lowerneck -21.2831 -4.03765 -2.88202
upperneck 12.8375 -4.33734 -1.42723
head 7.44145 -2.35784 -0.547021
rclavicle 1.19271e-014 1.90833e-014
rhumerus 1.7015 -34.1744 -16.0929
rradius 80.6314
rwrist -8.43176
rhand -15.0687 -29.5986
rfingers 7.12502
rthumb 11.0985 -59.2851
lclavicle 1.19271e-014 1.90833e-014
lhumerus 10.5187 -8.92032 48.2018
lradius 95.7959
lwrist 28.6989
lhand 2.69872 -23.4542
lfingers 7.12502
lthumb 28.1726 4.44887
rfemur 10.3196 -0.526468 22.6222
rtibia -4.77083e-014
rfoot -18.1702 -12.892
rtoes -16.0774
lfemur -10.6564 -5.00108 -4.92858
ltibia 34.0969
lfoot -22.7095 6.02048
ltoes -58.1591
937
root -0.299062 18.5539 6.37591 0.696207 4.94633 -9.38798
lowerback 14.8163 1.56141 -3.84381
upperback -1.01839 1.01956 -3.90731
thorax -9.45301 0.568087 -2.27818
lowerneck -21.7377 -4.2767 -3.44687
upperneck 13.2738 -4.5547 -0.950572
head 7.68811 -2.44492 -0.343698
rclavicle 9.93923e-015 -1.27222e-014
rhumerus 2.91065 -36.085 -16.5013
rradius 78.5569
rwrist -7.06437
rhand -16.2292 -29.8271
rfingers 7.12502
rthumb 9.979 -59.5706
lclavicle 9.93923e-015 -1.27222e-014
lhumerus 10.7658 -9.23393 48.3911
lradius 96.0468
lwrist 28.558
lhand 2.63055 -23.6691
lfingers 7.12502
lthumb 28.1075 4.24465
rfemur 10.0884 -1.03355 22.6365
rtibia 0
rfoot -17.9584 -12.8645
rtoes -15.8448
lfemur -11.1537 -5.17172 -4.80253
ltibia 34.1531
lfoot -22.3321 5.71577
ltoes -58.1468
938
root -0.300644 18.5713 6.31945 0.740655 5.50738 -9.43652
lowerback 15.6467 1.66875 -3.67277
upperback -0.872704 1.1395 -3.96891
thorax -9.76232 0.613764 -2.49638
lowerneck -21.7901 -4.39133 -3.60772
upperneck 13.23 -4.67252 -0.871897
head 7.68921 -2.50076 -0.307912
rclavicle 2.10712e-014 2.54444e-014
rhumerus 4.4812 -37.8845 -16.988
rradius 75.9353
rwrist -5.89029
rhand -17.3116 -29.9359
rfingers 7.12502
rthumb 8.93464 -59.7268
lclavicle 2.10712e-014 2.54444e-014
lhumerus 10.8722 -9.46889 48.5596
lradius 96.5045
lwrist 28.3781
lhand 2.61233 -23.8119
lfingers 7.12502
lthumb 28.09 4.10471
rfemur 9.85877 -1.5886 22.6381
rtibia -2.70347e-014
rfoot -17.7005 -12.8175
rtoes -15.3389
lfemur -11.6831 -5.31868 -4.67742
ltibia 34.2189
lfoot -21.9221 5.36484
ltoes -58.0321
939
root -0.30415 18.5891 6.25245 0.783254 6.07093 -9.56555
lowerback 16.5443 1.775 -3.33511
upperback -0.662605 1.29171 -4.03605
thorax -10.0309 0.664809 -2.82692
lowerneck -21.9143 -4.5864 -3.85197
upperneck 13.1203 -4.88137 -0.729573
head 7.68521 -2.59693 -0.250368
rclavicle -3.77691e-014 -3.81667e-014
rhumerus 6.42885 -39.6976 -17.4934
rradius 72.6775
rwrist -5.16521
rhand -17.8034 -30.2413
rfingers 7.12502
rthumb 8.46007 -60.0519
lclavicle -3.77691e-014 -3.81667e-014
lhumerus 11.0141 -9.59966 48.7411
lradius 96.9881
lwrist 28.1054
lhand 2.72825 -23.833
lfingers 7.12502
lthumb 28.2008 4.06537
rfemur 9.58422 -2.14611 22.7372
rtibia 1.11319e-014
rfoot -17.4252 -12.8087
rtoes -14.8602
lfemur -12.2852 -5.3358 -4.44874
ltibia 34.3254
lfoot -21.4195 4.94115
ltoes -57.9057
940
root -0.306106 18.6068 6.18181 0.840547 6.48384 -9.74296
lowerback 17.3954 1.88823 -2.85067
upperback -0.419781 1.48865 -4.14718
thorax -10.2252 0.72742 -3.30208
lowerneck -22.0516 -4.82042 -4.06952
upperneck 13.017 -5.16241 -0.517516
head 7.68832 -2.71881 -0.183938
rclavicle 1.19271e-014 -5.40694e-014
rhumerus 8.48526 -41.0651 -17.9343
rradius 68.6605
rwrist -3.79245
rhand -18.7548 -31.4672
rfingers 7.12502
rthumb 7.54185 -61.3127
lclavicle 1.19271e-014 -5.40694e-014
lhumerus 11.2253 -9.66155 48.8371
lradius 97.3471
lwrist 27.8619
lhand 2.85566 -23.8548
lfingers 7.12502
lthumb 28.3226 4.0234
rfemur 9.26013 -2.55257 22.9012
rtibia -4.77083e-015
rfoot -17.157 -12.8601
rtoes -14.3928
lfemur -12.8742 -5.24953 -4.19052
ltibia 34.4584
lfoot -20.9341 4.61695
ltoes -57.8323
941
root -0.31928 18.6223 6.08703 0.967829 7.27957 -9.77884
lowerback 18.5074 1.84601 -2.4933
upperback -0.1913 1.44151 -4.29353
thorax -10.5902 0.677518 -3.69854
lowerneck -22.2123 -5.04432 -4.27998
upperneck 12.9546 -5.44866 -0.205619
head 7.71288 -2.83271 -0.0877218
rclavicle -2.38542e-015 6.36111e-015
rhumerus 10.8969 -42.0635 -18.6439
rradius 64.4169
rwrist -3.76836
rhand -17.3966 -34.4228
rfingers 7.12502
rthumb 8.85263 -64.2172
lclavicle -2.38542e-015 6.36111e-015
lhumerus 11.5656 -9.62306 48.9377
lradius 97.496
lwrist 27.6549
lhand 2.92124 -24.0755
lfingers 7.12502
lthumb 28.3853 3.79234
rfemur 8.8377 -3.34142 22.9531
rtibia 4.77083e-015
rfoot -16.9269 -12.934
rtoes -13.9539
lfemur -13.7587 -5.25478 -4.03005
ltibia 34.6125
lfoot -20.3512 4.19357
ltoes -57.846
942
root -0.32288 18.6348 6.0085 0.980139 7.62491 -9.80464
lowerback 19.4479 1.94413 -2.05383
upperback 0.127108 1.60964 -4.52
thorax -10.7382 0.724171 -4.2812
lowerneck -22.4023 -5.31366 -4.55594
upperneck 12.9768 -5.80879 0.290621
head 7.78144 -2.96618 0.0676892
rclavicle -7.31528e-014 -1.90833e-014
rhumerus 13.3215 -42.4311 -19.426
rradius 59.543
rwrist -3.52214
rhand -13.3669 -36.8503
rfingers 7.12502
rthumb 12.7395 -66.4417
lclavicle -7.31528e-014 -1.90833e-014
lhumerus 11.9711 -9.6072 48.9481
lradius 97.631
lwrist 27.5646
lhand 2.93097 -24.3547
lfingers 7.12502
lthumb 28.3946 3.51151
rfemur 8.55789 -3.6854 22.9571
rtibia 2.70347e-014
rfoot -16.6604 -13.0524
rtoes -13.8532
lfemur -14.2761 -5.14012 -3.9796
ltibia 34.7657
lfoot -20.0217 4.01844
ltoes -57.852
